<svg width="12" height="12" viewBox="0 0 12 12" fill="none" xmlns="http://www.w3.org/2000/svg">
<g clip-path="url(#clip0_97_71)">
<path fill-rule="evenodd" clip-rule="evenodd" d="M5.82427 11.5425L4.97199 11.9241C4.60126 12.0902 4.16499 11.9733 3.92701 11.6442L3.37974 10.8875C3.30817 10.7885 3.19785 10.7247 3.07631 10.7123L2.14734 10.6168C1.7433 10.5752 1.42395 10.2558 1.38236 9.85178L1.28685 8.92281C1.27438 8.80127 1.2106 8.69096 1.11166 8.61938L0.354887 8.07212C0.0258509 7.83416 -0.0910849 7.39787 0.0749009 7.02714L0.456673 6.17486C0.50656 6.06345 0.50656 5.93597 0.456673 5.82454L0.0749009 4.97226C-0.091087 4.60153 0.0258488 4.16526 0.354887 3.92728L1.11166 3.38001C1.2106 3.30845 1.27438 3.19812 1.28685 3.07659L1.38236 2.14761C1.42396 1.74358 1.7433 1.42423 2.14734 1.38264L3.07631 1.28713C3.19785 1.27466 3.30817 1.21087 3.37974 1.11193L3.92701 0.355161C4.16497 0.0261255 4.60126 -0.0908102 4.97199 0.0751755L5.82427 0.456947C5.93568 0.506835 6.06316 0.506835 6.17459 0.456947L7.02686 0.0751755C7.3976 -0.0908123 7.83387 0.0261234 8.07185 0.355161L8.61912 1.11193C8.69068 1.21087 8.80101 1.27466 8.92254 1.28713L9.85151 1.38264C10.2556 1.42424 10.5749 1.74358 10.6165 2.14761L10.712 3.07659C10.7245 3.19813 10.7883 3.30844 10.8872 3.38001L11.644 3.92728C11.973 4.16524 12.0899 4.60153 11.9239 4.97226L11.5422 5.82454C11.4923 5.93595 11.4923 6.06343 11.5422 6.17486L11.9239 7.02714C12.0899 7.39787 11.973 7.83414 11.644 8.07212L10.8872 8.61938C10.7883 8.69095 10.7245 8.80128 10.712 8.92281L10.6165 9.85178C10.5749 10.2558 10.2556 10.5752 9.85151 10.6168L8.92254 10.7123C8.801 10.7247 8.69069 10.7885 8.61912 10.8875L8.07185 11.6442C7.83389 11.9733 7.3976 12.0902 7.02686 11.9241L6.17459 11.5425C6.06317 11.4926 5.9357 11.4926 5.82427 11.5425ZM3.68383 5.18888L2.95653 5.91619L5.3981 8.35776L9.14617 4.60969L8.41893 3.88238L5.39814 6.90295L3.68383 5.18888Z" fill="#3461D5"/>
</g>
<defs>
<clipPath id="clip0_97_71">
<rect width="12" height="12" fill="white"/>
</clipPath>
</defs>
</svg>
