<svg width="15" height="24" viewBox="0 0 15 24" fill="none" xmlns="http://www.w3.org/2000/svg">
<path d="M14.16 9.87759C14.1606 9.75397 14.1208 9.63331 14.0473 9.534L7.55748 0.2484C7.44897 0.0927572 7.2711 -3.14713e-05 7.08107 -3.14713e-05C6.89104 -3.14713e-05 6.71316 0.0927649 6.60466 0.2484L0.108309 9.54463C-0.0594844 9.77972 -0.0295445 10.102 0.178867 10.3021C0.387278 10.5019 0.710715 10.5182 0.938411 10.3406L7.0811 5.68059L13.2238 10.3374C13.3169 10.4094 13.4298 10.4515 13.5475 10.4577H13.5849C13.9033 10.4545 14.1597 10.1959 14.16 9.87755L14.16 9.87759Z" fill="#141414"/>
<path d="M13.5811 13.3103L7.58132 23.2919C7.47637 23.4668 7.28723 23.5735 7.08327 23.5735C6.8793 23.5735 6.69016 23.4668 6.58521 23.2919L0.585434 13.3103C0.433351 13.0574 0.49531 12.7307 0.728918 12.5508L6.72809 7.92215C6.9371 7.76058 7.22941 7.76058 7.43841 7.92215L13.4376 12.5508C13.6712 12.7307 13.7332 13.0574 13.5811 13.3103H13.5811ZM12.6289 13.2166H12.6292C12.5746 13.096 12.4747 13.0023 12.3511 12.9554C12.2275 12.9086 12.0905 12.913 11.9701 12.9676L7.26767 15.0991C7.15057 15.1522 7.01598 15.1522 6.89888 15.0991L2.19642 12.9699C2.07577 12.913 1.93731 12.9071 1.81221 12.9531C1.68711 12.9993 1.58571 13.0936 1.53058 13.2151C1.47543 13.3367 1.47158 13.4751 1.51961 13.5996C1.56734 13.7241 1.66339 13.824 1.78553 13.8771L6.87724 16.1856H6.87754C7.00917 16.2461 7.16066 16.2461 7.29259 16.1856L12.3843 13.8771C12.6339 13.7624 12.7436 13.4671 12.6292 13.2172L12.6289 13.2166Z" fill="#141414"/>
</svg>
