<svg width="17" height="17" viewBox="0 0 17 17" fill="none" xmlns="http://www.w3.org/2000/svg">
<path d="M8.50001 0C10.7843 0 12.9273 0.906308 14.5104 2.48964C14.7961 2.77518 15.0606 3.08017 15.3022 3.40214L15.3 1.70002C15.3 1.26413 15.6282 0.90482 16.0509 0.855733L16.15 0.850041C16.5859 0.850041 16.9452 1.17817 16.9943 1.60089L17 1.70002V5.95C17 6.3859 16.6719 6.7452 16.2491 6.79429L16.15 6.79998H11.9C11.4306 6.79998 11.05 6.41946 11.05 5.94999C11.05 5.51409 11.3782 5.15479 11.8009 5.1057L11.9 5.10001L14.3906 5.10024C14.0934 4.58666 13.7296 4.11294 13.3083 3.69174C12.0408 2.42409 10.3288 1.70005 8.50006 1.70005C4.74459 1.70005 1.70008 4.74455 1.70008 8.50001C1.70008 12.2555 4.74459 15.3 8.50006 15.3C10.3288 15.3 12.0409 14.5759 13.3083 13.3083C13.9399 12.6768 14.4424 11.9273 14.7844 11.1027C14.9545 10.6926 15.084 10.2661 15.1705 9.82804C15.2617 9.36746 15.7089 9.06805 16.1693 9.15912C16.6299 9.2502 16.9293 9.69735 16.8383 10.1579C16.7298 10.7064 16.5677 11.2405 16.3548 11.7538C15.9271 12.7852 15.2991 13.7218 14.5104 14.5104C12.9272 16.0937 10.7843 17 8.49997 17C3.80556 17 0 13.1944 0 8.50004C0 3.80564 3.80556 8.83995e-05 8.49997 8.83995e-05L8.50001 0Z" fill="#545454"/>
</svg>
