<svg width="15" height="17" viewBox="0 0 15 17" fill="none" xmlns="http://www.w3.org/2000/svg">
<path fill-rule="evenodd" clip-rule="evenodd" d="M2.32341 6.03266C2.97562 6.03266 3.58695 6.31803 4.0354 6.76637L10.4755 3.01633C10.394 2.81256 10.3532 2.568 10.3532 2.32341C10.3532 1.05987 11.413 0 12.6766 0C13.9401 0 15 1.05978 15 2.32341C15 3.58695 13.9402 4.64682 12.6766 4.64682C12.0244 4.64682 11.413 4.36145 10.9646 3.9131L4.52453 7.66315C4.60602 7.86692 4.64682 8.11147 4.64682 8.35606C4.64682 8.60066 4.60602 8.84522 4.52453 9.04898L10.9646 12.799C11.4129 12.3507 12.0244 12.0653 12.6766 12.0653C13.9401 12.0653 15 13.1251 15 14.3887C15 15.6931 13.9402 16.7121 12.6766 16.7121C11.413 16.7121 10.3532 15.6931 10.3532 14.3887C10.3532 14.1442 10.394 13.9404 10.4755 13.6958L4.0354 9.94576C3.58707 10.3941 2.97562 10.6795 2.32341 10.6795C1.05987 10.6795 0 9.66049 0 8.35606C0 7.09252 1.05978 6.03266 2.32341 6.03266Z" fill="#545454"/>
</svg>
