<svg width="16" height="15" viewBox="0 0 16 15" fill="none" xmlns="http://www.w3.org/2000/svg">
<path d="M8.6595 0V1.3631H1.43899V13.635H14.3947V6.79558H15.8337V14.3167C15.8169 14.6826 15.5013 14.9823 15.1142 14.9982H0.71953C0.333255 14.9823 0.0167962 14.6834 0 14.3167V0.681763C0.016801 0.315876 0.332395 0.0161203 0.71953 0.000210609L8.6595 0ZM10.3041 0H15.1142C15.1352 0.000823124 15.1562 0.00178321 15.1769 0.00246916C15.5391 0.0476063 15.8176 0.334058 15.8337 0.681423V5.23763H14.3947V1.36312H10.3042V1.0718e-05L10.3041 0Z" fill="#717171"/>
<path d="M15.4039 1.37087C15.4039 1.37087 10.1107 6.3847 8.42548 7.98093C8.1445 8.24708 7.68885 8.24708 7.40788 7.98093C7.1269 7.71478 7.1269 7.28319 7.40788 7.01704C9.09304 5.42084 14.3863 0.406982 14.3863 0.406982L15.4039 1.37087Z" fill="#717171"/>
</svg>
