<svg width="20" height="18" viewBox="0 0 20 18" fill="none" xmlns="http://www.w3.org/2000/svg">
<path d="M17.3447 8.56578C15.5301 6.08705 12.8528 4.66553 10.0002 4.66553C7.14753 4.66553 4.47038 6.08718 2.65565 8.5661L2.39014 8.92829L2.65539 9.29061C4.46999 11.7693 7.14727 13.1909 9.99993 13.1909C12.8526 13.1909 15.5301 11.7692 17.3445 9.29029L17.61 8.9281L17.3447 8.56578ZM10.0005 11.9115C8.30788 11.9115 6.93089 10.5731 6.93089 8.928C6.93089 7.28293 8.30791 5.94446 10.0005 5.94446C11.693 5.94446 13.0699 7.28293 13.0699 8.928C13.0699 10.5731 11.693 11.9115 10.0005 11.9115ZM3.98258 8.928C4.60087 8.16523 5.31719 7.53537 6.09806 7.05048C5.80859 7.61671 5.64483 8.25391 5.64483 8.928C5.64483 9.6021 5.80873 10.2393 6.09819 10.8055C5.31715 10.3206 4.60097 9.69077 3.98258 8.928ZM13.9026 10.8055C14.192 10.2393 14.3558 9.6021 14.3558 8.928C14.3558 8.25391 14.1922 7.61671 13.9026 7.05061C14.6835 7.53562 15.3995 8.16498 16.0181 8.928C15.3996 9.69077 14.6834 10.3206 13.9026 10.8055Z" fill="#545454"/>
</svg>
