<svg width="30" height="25" viewBox="0 0 30 25" fill="none" xmlns="http://www.w3.org/2000/svg">
<path fill-rule="evenodd" clip-rule="evenodd" d="M1.00022 14.8428L10.5793 7.71933L18.1504 17.8592L8.57133 24.9827L7.58098 23.6564L7.96461 23.3711C8.77964 22.765 8.94152 21.5951 8.32474 20.7691C7.70947 19.9451 6.53989 19.7654 5.72489 20.3714L5.34126 20.6567L4.23006 19.1685L4.61369 18.8832C5.42873 18.2771 5.59061 17.1073 4.97534 16.2833C4.35853 15.4572 3.18897 15.2775 2.37398 15.8836L1.99035 16.1689L1 14.8425L1.00022 14.8428ZM11.38 7.12391L20.9591 0.000407731L21.9494 1.32677L21.5658 1.61206C20.7508 2.21816 20.5889 3.38799 21.2057 4.21404C21.8209 5.03806 22.9905 5.21776 23.8055 4.61168L24.1891 4.32639L25.3003 5.81461L24.9167 6.0999C24.1017 6.706 23.9398 7.87584 24.5551 8.69986C25.1719 9.52594 26.3414 9.7056 27.1564 9.09952L27.54 8.81424L28.5304 10.1406L18.9513 17.2641L11.38 7.12391ZM11.204 20.642C10.9841 20.8055 10.6687 20.7589 10.5007 20.5339C10.3343 20.3111 10.3782 19.9941 10.5981 19.8305L14.3536 17.0377C14.5756 16.8727 14.8905 16.9229 15.0569 17.1457C15.2248 17.3707 15.1815 17.6841 14.9595 17.8491L11.204 20.642ZM8.86539 17.51C8.64551 17.6735 8.33011 17.6269 8.16216 17.4019C7.99421 17.177 8.03961 16.862 8.25951 16.6985L12.0151 13.9057C12.237 13.7407 12.5504 13.7888 12.7183 14.0137C12.8863 14.2387 12.8429 14.5521 12.621 14.7171L8.86539 17.51ZM6.52683 14.378C6.30694 14.5415 5.99001 14.4928 5.82359 14.2699C5.65565 14.045 5.70105 13.73 5.92095 13.5665L9.67652 10.7737C9.89843 10.6086 10.2118 10.6568 10.3798 10.8817C10.5462 11.1046 10.5043 11.4201 10.2824 11.5851L6.52683 14.378ZM14.5837 7.39266L18.1737 4.72298C18.3956 4.55796 18.7105 4.60814 18.8769 4.83103L23.2967 10.7504C23.4631 10.9733 23.4213 11.2888 23.1994 11.4538L19.6094 14.1235C19.3875 14.2885 19.0726 14.2383 18.9062 14.0154L14.4864 8.09606C14.32 7.87319 14.3618 7.55769 14.5837 7.39266ZM18.3792 5.83207L15.5899 7.90639L19.4037 13.0142L22.1931 10.9399L18.3792 5.83207Z" fill="#272727"/>
</svg>
