<svg width="30" height="26" viewBox="0 0 30 26" fill="none" xmlns="http://www.w3.org/2000/svg">
<path fill-rule="evenodd" clip-rule="evenodd" d="M1.00022 15.4545L10.5793 8.33102L18.1504 18.4709L8.57133 25.5944L7.58098 24.2681L7.96461 23.9828C8.77964 23.3767 8.94152 22.2068 8.32474 21.3808C7.70947 20.5568 6.53989 20.3771 5.72489 20.9831L5.34126 21.2684L4.23006 19.7802L4.61369 19.4949C5.42873 18.8888 5.59061 17.719 4.97534 16.895C4.35853 16.0689 3.18897 15.8892 2.37398 16.4953L1.99035 16.7806L1 15.4542L1.00022 15.4545ZM11.38 7.73561L20.9591 0.612102L21.9494 1.93846L21.5658 2.22375C20.7508 2.82985 20.5889 3.99969 21.2057 4.82574C21.8209 5.64976 22.9905 5.82945 23.8055 5.22338L24.1891 4.93809L25.3003 6.4263L24.9167 6.71159C24.1017 7.31769 23.9398 8.48753 24.5551 9.31155C25.1719 10.1376 26.3414 10.3173 27.1564 9.71122L27.54 9.42593L28.5304 10.7523L18.9513 17.8758L11.38 7.73561ZM11.204 21.2537C10.9841 21.4172 10.6687 21.3706 10.5007 21.1456C10.3343 20.9228 10.3782 20.6058 10.5981 20.4422L14.3536 17.6494C14.5756 17.4844 14.8905 17.5346 15.0569 17.7574C15.2248 17.9824 15.1815 18.2958 14.9595 18.4608L11.204 21.2537ZM8.86539 18.1217C8.64551 18.2852 8.33011 18.2386 8.16216 18.0136C7.99421 17.7887 8.03961 17.4737 8.25951 17.3102L12.0151 14.5174C12.237 14.3524 12.5504 14.4005 12.7183 14.6254C12.8863 14.8504 12.8429 15.1638 12.621 15.3288L8.86539 18.1217ZM6.52683 14.9896C6.30694 15.1532 5.99001 15.1045 5.82359 14.8816C5.65565 14.6567 5.70105 14.3417 5.92095 14.1782L9.67652 11.3854C9.89843 11.2203 10.2118 11.2685 10.3798 11.4934C10.5462 11.7163 10.5043 12.0318 10.2824 12.1968L6.52683 14.9896ZM14.5837 8.00435L18.1737 5.33468C18.3956 5.16965 18.7105 5.21984 18.8769 5.44272L23.2967 11.3621C23.4631 11.585 23.4213 11.9005 23.1994 12.0655L19.6094 14.7352C19.3875 14.9002 19.0726 14.85 18.9062 14.6271L14.4864 8.70776C14.32 8.48489 14.3618 8.16939 14.5837 8.00435ZM18.3792 6.44377L15.5899 8.51808L19.4037 13.6259L22.1931 11.5516L18.3792 6.44377Z" fill="#717171"/>
</svg>
