<svg width="109" height="32" viewBox="0 0 109 32" fill="none" xmlns="http://www.w3.org/2000/svg">
<g clip-path="url(#clip0_155_2561)">
<path d="M40.6939 23.2281C39.4071 22.5179 38.3337 21.4774 37.5847 20.2141C36.8471 18.9447 36.4587 17.5032 36.4587 16.0357C36.4587 14.5681 36.8471 13.1266 37.5847 11.8572C38.3298 10.5909 39.4041 9.54941 40.6939 8.84325C42.0466 8.09985 43.5695 7.71984 45.1134 7.74042C46.6456 7.74042 47.9894 8.04364 49.1447 8.65008C50.2078 9.18563 51.1588 9.91891 51.9465 10.8105L49.6455 12.8587C49.0731 12.2821 48.4167 11.7953 47.6985 11.4147C46.9914 11.0439 46.1297 10.858 45.1134 10.8571C44.1913 10.8486 43.2836 11.085 42.4831 11.5421C41.6973 11.9841 41.0469 12.6315 40.6019 13.4149C40.1454 14.2131 39.9087 15.1178 39.9159 16.037C39.9079 16.9447 40.1422 17.8381 40.5946 18.6254C41.0469 19.4128 41.7012 20.0656 42.49 20.5169C43.2861 20.9747 44.1906 21.2112 45.1093 21.2019C45.8506 21.2075 46.5857 21.0678 47.2731 20.7909C47.94 20.5169 48.4335 20.2214 48.7536 19.9045V18.0208H45.5004V15.3603H52.1057V21.2512C51.6492 21.806 51.1118 22.2891 50.5113 22.6842C49.7576 23.1887 48.9375 23.5866 48.0744 23.8665C47.1203 24.1866 46.12 24.3481 45.1134 24.3446C43.5679 24.3641 42.0442 23.9791 40.6939 23.2281Z" fill="black"/>
<path d="M56.4676 23.5719C55.5806 23.0743 54.8408 22.3517 54.323 21.4772C53.8082 20.6016 53.5368 19.6046 53.5368 18.5893C53.5368 17.5739 53.8082 16.577 54.323 15.7013C54.8389 14.8299 55.5783 14.1115 56.4649 13.6203C57.3878 13.1205 58.4212 12.8586 59.4711 12.8586C60.5211 12.8586 61.5545 13.1205 62.4774 13.6203C63.1368 13.9938 63.7156 14.4939 64.1804 15.0919C64.6451 15.6899 64.9867 16.3738 65.1853 17.1043C65.3839 17.8348 65.4357 18.5973 65.3376 19.3478C65.2395 20.0984 64.9935 20.8221 64.6138 21.4772C64.1023 22.3528 63.3656 23.076 62.4802 23.5719C61.5598 24.0796 60.5254 24.3459 59.4739 24.3459C58.4224 24.3459 57.388 24.0796 56.4676 23.5719ZM61.4429 20.6607C61.7121 20.3887 61.9237 20.0653 62.0652 19.7099C62.2066 19.3545 62.2749 18.9743 62.2661 18.592C62.2753 18.2117 62.2071 17.8334 62.0656 17.4802C61.924 17.127 61.7122 16.8061 61.4429 16.537C61.1879 16.2696 60.8802 16.0577 60.5392 15.9149C60.1982 15.772 59.8313 15.7011 59.4615 15.7068C59.0933 15.7007 58.7279 15.7713 58.3886 15.9143C58.0493 16.0572 57.7437 16.2693 57.4912 16.537C57.2259 16.8083 57.0176 17.1299 56.8788 17.4829C56.74 17.8358 56.6734 18.2129 56.683 18.592C56.6738 18.9731 56.7404 19.3522 56.8792 19.7073C57.0179 20.0625 57.226 20.3865 57.4912 20.6607C57.7418 20.9316 58.0468 21.1466 58.3864 21.2918C58.7259 21.437 59.0922 21.509 59.4615 21.5032C59.8326 21.5081 60.2006 21.4355 60.5418 21.2899C60.883 21.1443 61.19 20.9291 61.4429 20.6579V20.6607Z" fill="black"/>
<path d="M69.7002 23.5719C68.8145 23.0746 68.0757 22.3531 67.5583 21.4799C67.0443 20.604 66.7734 19.6072 66.7734 18.592C66.7734 17.5768 67.0443 16.58 67.5583 15.7041C68.0742 14.8326 68.8136 14.1143 69.7002 13.6231C70.6231 13.1232 71.6565 12.8614 72.7064 12.8614C73.7564 12.8614 74.7898 13.1232 75.7127 13.6231C76.3716 13.9971 76.9497 14.4977 77.4138 15.0959C77.8778 15.6941 78.2187 16.3782 78.4167 17.1086C78.6147 17.839 78.6658 18.6014 78.5672 19.3516C78.4686 20.1019 78.2222 20.8252 77.8422 21.4799C77.3315 22.354 76.5964 23.0762 75.7127 23.5719C74.7923 24.0796 73.758 24.3459 72.7064 24.3459C71.6549 24.3459 70.6206 24.0796 69.7002 23.5719ZM74.6768 20.6607C74.9458 20.3885 75.1574 20.0652 75.2988 19.7098C75.4402 19.3544 75.5087 18.9743 75.5001 18.592C75.509 18.2117 75.4407 17.8336 75.2992 17.4804C75.1577 17.1272 74.946 16.8063 74.6768 16.537C74.4217 16.2698 74.114 16.0581 73.773 15.9152C73.4321 15.7723 73.0652 15.7014 72.6955 15.7068C72.3272 15.7004 71.9617 15.771 71.6224 15.9139C71.2831 16.0569 70.9774 16.2691 70.7251 16.537C70.4593 16.8081 70.2507 17.1296 70.1117 17.4826C69.9726 17.8356 69.906 18.2128 69.9156 18.592C69.9065 18.9732 69.9734 19.3524 70.1124 19.7075C70.2513 20.0626 70.4596 20.3866 70.7251 20.6607C70.9756 20.9318 71.2806 21.147 71.6201 21.2922C71.9597 21.4374 72.3261 21.5093 72.6955 21.5032C73.0665 21.5079 73.4344 21.4351 73.7756 21.2896C74.1168 21.144 74.4237 20.9289 74.6768 20.6579V20.6607Z" fill="black"/>
<path d="M84.5381 23.7856C83.9152 23.4148 83.4674 23.0015 83.1948 22.5458H83.1262V24.3268H80.0513V7.79657H83.1262V14.6547H83.1948C83.4692 14.198 83.917 13.787 84.5381 13.4217C85.2024 13.0398 85.9589 12.8474 86.7252 12.8655C87.6093 12.8619 88.4754 13.1146 89.2184 13.593C90.0012 14.0944 90.6347 14.7965 91.0529 15.626C91.5026 16.5508 91.7362 17.5654 91.7362 18.5934C91.7362 19.6214 91.5026 20.636 91.0529 21.5608C90.6335 22.393 90.0004 23.0993 89.2184 23.6075C88.4781 24.0931 87.611 24.3504 86.7252 24.3473C85.9584 24.3637 85.2018 24.1694 84.5381 23.7856ZM87.2151 21.1128C87.6327 20.8552 87.9775 20.4954 88.2167 20.0675C88.4705 19.6165 88.6002 19.1065 88.5927 18.5893C88.5969 18.09 88.4731 17.598 88.2329 17.1601C87.9927 16.7222 87.6442 16.353 87.2206 16.0877C86.8136 15.8352 86.3441 15.7014 85.8649 15.7014C85.3858 15.7014 84.9162 15.8352 84.5093 16.0877C84.0857 16.353 83.7372 16.7222 83.497 17.1601C83.2568 17.598 83.1329 18.09 83.1372 18.5893C83.1303 19.1064 83.26 19.6163 83.5131 20.0675C83.7527 20.4952 84.0974 20.8549 84.5148 21.1128C84.9214 21.3662 85.3911 21.5005 85.8704 21.5005C86.3497 21.5005 86.8194 21.3662 87.2261 21.1128H87.2151Z" fill="black"/>
<path d="M93.4554 10.7064C93.2923 10.5492 93.1627 10.3607 93.0745 10.1521C92.9863 9.94357 92.9414 9.71934 92.9424 9.49297C92.9435 9.26661 92.9904 9.0428 93.0805 8.83506C93.1705 8.62731 93.3018 8.43994 93.4664 8.28426C93.6318 8.12239 93.8276 7.99485 94.0426 7.90902C94.2576 7.8232 94.4876 7.78077 94.7191 7.78421C94.9491 7.78008 95.1776 7.82223 95.3909 7.90814C95.6043 7.99405 95.7981 8.12196 95.9609 8.28426C96.1229 8.44177 96.2516 8.63009 96.3395 8.83809C96.4274 9.04609 96.4727 9.26956 96.4727 9.49532C96.4727 9.72108 96.4274 9.94455 96.3395 10.1525C96.2516 10.3605 96.1229 10.5489 95.9609 10.7064C95.7966 10.8659 95.6023 10.9912 95.3891 11.0752C95.1759 11.1592 94.9482 11.2 94.7191 11.1955C94.4866 11.2014 94.2551 11.1613 94.0382 11.0773C93.8213 10.9934 93.6232 10.8673 93.4554 10.7064ZM96.2449 24.3322H93.1714V13.086H96.2449V24.3322Z" fill="black"/>
<path d="M99.9578 28.186C99.0431 27.7156 98.39 27.1923 97.9985 26.616L99.9345 24.6829C100.266 25.0949 100.682 25.4324 101.153 25.6734C101.686 25.967 102.286 26.1194 102.895 26.1159C103.81 26.1159 104.542 25.8319 105.091 25.2638C105.64 24.6957 105.918 23.9491 105.925 23.0239V22.1909H105.857C105.582 22.6302 105.142 23.0321 104.535 23.3965C103.929 23.7609 103.23 23.7733 102.44 23.7733C101.589 23.7733 100.8 23.7116 100.072 23.2486C99.3251 22.7671 98.7199 22.0962 98.3182 21.3046C97.8832 20.4279 97.6569 19.4628 97.6569 18.4844C97.6569 17.5061 97.8832 16.541 98.3182 15.6643C98.7207 14.8732 99.3257 14.2025 100.072 13.7203C100.776 13.2631 101.599 13.0207 102.44 13.023C103.174 13.0084 103.898 13.1931 104.535 13.5573C105.143 13.9135 105.583 14.3113 105.857 14.7506L105.925 14.5821V13.086H109V23.0239C109.012 24.0677 108.745 25.0959 108.226 26.0022C107.718 26.8886 106.978 27.6199 106.084 28.1175C105.145 28.6398 104.084 28.9063 103.009 28.8901C101.95 28.9053 100.903 28.6637 99.9578 28.186ZM105.186 20.3839C105.678 19.8757 105.925 19.0742 105.925 18.3166C105.925 17.559 105.678 17.0713 105.186 16.563C104.95 16.3153 104.665 16.1195 104.349 15.9884C104.033 15.8572 103.693 15.7935 103.351 15.8013C103.013 15.7951 102.677 15.8596 102.365 15.9908C102.054 16.122 101.773 16.3169 101.541 16.563C101.065 17.0855 100.8 17.7668 100.8 18.4735C100.8 19.1802 101.065 19.8614 101.541 20.3839C101.773 20.6298 102.054 20.8246 102.365 20.9558C102.677 21.087 103.013 21.1517 103.351 21.1456C103.693 21.1532 104.033 21.0893 104.349 20.9581C104.665 20.827 104.95 20.6314 105.186 20.3839Z" fill="black"/>
<path d="M-3.8147e-06 22.5949V9.40477C5.35824e-05 8.91114 0.130164 8.42622 0.377264 7.99867C0.624364 7.57112 0.979761 7.216 1.40778 6.96895L12.8182 0.37797C13.2474 0.130246 13.7344 -0.000183105 14.2301 -0.000183105C14.7258 -0.000183105 15.2128 0.130246 15.642 0.37797L27.0524 6.96895C27.4804 7.216 27.8358 7.57112 28.0829 7.99867C28.33 8.42622 28.4601 8.91114 28.4602 9.40477V22.5936C28.4604 23.0874 28.3304 23.5726 28.0833 24.0004C27.8362 24.4283 27.4806 24.7836 27.0524 25.0308L15.642 31.6204C15.213 31.8688 14.726 31.9996 14.2301 31.9996C13.7342 31.9996 13.2471 31.8688 12.8182 31.6204L1.40778 25.0308C0.979761 24.7837 0.624364 24.4286 0.377264 24.001C0.130164 23.5735 5.35824e-05 23.0886 -3.8147e-06 22.5949Z" fill="url(#paint0_radial_155_2561)"/>
<path d="M14.2232 27.4585C13.5451 27.4594 12.8787 27.2817 12.2913 26.9434L5.51449 23.0362C4.99304 22.7356 4.56001 22.3033 4.25895 21.7826C3.95788 21.262 3.79937 20.6714 3.79936 20.0702V12.6723C3.80067 11.8691 4.01295 11.0803 4.41503 10.3846C4.81711 9.68887 5.39492 9.11064 6.09077 8.70759L12.611 5.00179C13.6524 4.40859 15.0108 4.19351 16.0413 4.80726L22.4092 8.60758C22.7795 8.82358 23.0595 9.16558 23.1979 9.57091C23.3362 9.97625 23.3237 10.4178 23.1625 10.8146C23.0642 11.0411 22.9186 11.244 22.7355 11.4099C22.5524 11.5757 22.336 11.7007 22.1007 11.7764C21.8654 11.8521 21.6166 11.8769 21.371 11.849C21.1254 11.8211 20.8885 11.7412 20.6762 11.6147L14.8571 8.14179C14.5333 7.94862 14.0545 8.1733 13.7279 8.35962L7.81688 11.7174C7.64931 11.8153 7.51042 11.9554 7.41411 12.1237C7.31779 12.292 7.26742 12.4826 7.26804 12.6764V19.4469C7.26802 19.6301 7.31632 19.8102 7.40808 19.9689C7.49985 20.1276 7.63185 20.2594 7.79081 20.3511L13.7773 23.8061C13.9129 23.8842 14.0667 23.9252 14.2232 23.9252C14.3798 23.9252 14.5335 23.8842 14.6692 23.8061L20.6145 20.3689C20.7818 20.2707 20.9204 20.1305 21.0167 19.9623C21.113 19.7941 21.1635 19.6036 21.1633 19.4099L21.1551 17.5768L15.6159 17.6234H15.6022C15.2407 17.628 14.8869 17.5186 14.5912 17.3108C14.2956 17.1029 14.0732 16.8072 13.9557 16.4658C13.8649 16.205 13.8375 15.9263 13.8759 15.6529C13.9143 15.3794 14.0173 15.119 14.1765 14.8932C14.3356 14.6674 14.5463 14.4826 14.7911 14.3542C15.0359 14.2258 15.3078 14.1574 15.5844 14.1546L22.8661 14.0944H22.8798C23.2219 14.0946 23.5563 14.1954 23.8413 14.3842C24.1263 14.5731 24.3493 14.8415 24.4825 15.1561C24.5747 15.3794 24.6213 15.6188 24.6197 15.8603L24.6375 19.4017C24.6374 20.2064 24.4255 20.9969 24.0231 21.6942C23.6207 22.3914 23.0419 22.9709 22.3447 23.3746L16.1456 26.9489C15.5604 27.2836 14.8976 27.4594 14.2232 27.4585Z" fill="white"/>
</g>
<defs>
<radialGradient id="paint0_radial_155_2561" cx="0" cy="0" r="1" gradientUnits="userSpaceOnUse" gradientTransform="translate(27.4682 24.1732) scale(33.8251 33.7727)">
<stop stop-color="#5204A8"/>
<stop offset="0.13" stop-color="#5706AA"/>
<stop offset="0.28" stop-color="#650DAE"/>
<stop offset="0.45" stop-color="#7D18B5"/>
<stop offset="0.63" stop-color="#9F28BF"/>
<stop offset="0.81" stop-color="#CA3CCC"/>
<stop offset="1" stop-color="#FF54DC"/>
</radialGradient>
<clipPath id="clip0_155_2561">
<rect width="109" height="32" fill="white"/>
</clipPath>
</defs>
</svg>
