<svg xmlns="http://www.w3.org/2000/svg" xmlns:xlink="http://www.w3.org/1999/xlink" width="70" height="70" viewBox="0 0 70 70"><defs><linearGradient id="a" x1="0.5" y1="-0.086" x2="0.5" y2="1" gradientUnits="objectBoundingBox"><stop offset="0" stop-color="#7e17ba"/><stop offset="1" stop-color="#36249b"/></linearGradient></defs><g transform="translate(-70 -1617)"><circle cx="35" cy="35" r="35" transform="translate(70 1617)" fill="url(#a)"/><path d="M-42.592-1.936a7.32,7.32,0,0,0,5.654,2.2c3.542,0,5.874-1.958,5.874-5.06a4.587,4.587,0,0,0-4.708-4.752,5.068,5.068,0,0,0-3.3,1.232V-11.99h7.018v-2.684H-42.13v8.382l2.178.594a4.23,4.23,0,0,1,3.08-1.21c1.672,0,2.64.9,2.64,2.244,0,1.21-.99,2.2-2.728,2.2a5.358,5.358,0,0,1-3.916-1.584Zm13.046-5.39c0,3.784,1.87,7.59,6.072,7.59,4.18,0,6.072-3.806,6.072-7.59s-1.892-7.568-6.072-7.568C-27.676-14.894-29.546-11.11-29.546-7.326Zm8.954,0c0,2.706-.792,4.818-2.882,4.818-2.112,0-2.9-2.112-2.9-4.818s.792-4.8,2.9-4.8C-21.384-12.122-20.592-10.032-20.592-7.326Zm4.51-3.872A3.519,3.519,0,0,0-12.364-7.59,3.525,3.525,0,0,0-8.624-11.2a3.582,3.582,0,0,0-3.74-3.7A3.576,3.576,0,0,0-16.082-11.2ZM-13.794,0h1.65L-2.75-14.674H-4.422Zm3.168-11.2a1.731,1.731,0,0,1-1.738,1.892A1.743,1.743,0,0,1-14.1-11.2a1.753,1.753,0,0,1,1.738-1.958A1.741,1.741,0,0,1-10.626-11.2Zm2.618,7.832A3.536,3.536,0,0,0-4.29.264,3.554,3.554,0,0,0-.55-3.366a3.594,3.594,0,0,0-3.74-3.7A3.576,3.576,0,0,0-8.008-3.366Zm5.478,0A1.742,1.742,0,0,1-4.29-1.452,1.726,1.726,0,0,1-6.028-3.366,1.753,1.753,0,0,1-4.29-5.324,1.768,1.768,0,0,1-2.53-3.366Z" transform="translate(127 1659)" fill="#fff"/></g></svg>