<svg xmlns="http://www.w3.org/2000/svg" xmlns:xlink="http://www.w3.org/1999/xlink" width="21" height="16" viewBox="0 0 21 16"><defs><clipPath id="a"><rect width="21" height="16" transform="translate(-0.451 -0.381)" fill="#fff"/></clipPath></defs><g transform="translate(0.451 0.381)" clip-path="url(#a)"><path d="M18.183,1.769A17.712,17.712,0,0,0,13.811.413a.066.066,0,0,0-.07.033A12.339,12.339,0,0,0,13.2,1.564a16.352,16.352,0,0,0-4.91,0A11.316,11.316,0,0,0,7.733.446a.069.069,0,0,0-.07-.033A17.663,17.663,0,0,0,3.291,1.769a.063.063,0,0,0-.029.025A18.128,18.128,0,0,0,.089,14.019a.074.074,0,0,0,.028.05A17.811,17.811,0,0,0,5.48,16.78a.069.069,0,0,0,.075-.025,12.73,12.73,0,0,0,1.1-1.785.068.068,0,0,0-.037-.095,11.729,11.729,0,0,1-1.675-.8.069.069,0,0,1-.007-.114c.113-.084.225-.172.333-.261a.066.066,0,0,1,.069-.009,12.7,12.7,0,0,0,10.794,0,.066.066,0,0,1,.07.009c.108.089.22.177.334.262a.069.069,0,0,1-.006.114,11.007,11.007,0,0,1-1.676.8.069.069,0,0,0-.036.1,14.294,14.294,0,0,0,1.1,1.784.068.068,0,0,0,.075.026,17.752,17.752,0,0,0,5.372-2.711.069.069,0,0,0,.028-.049A18.009,18.009,0,0,0,18.211,1.794.055.055,0,0,0,18.183,1.769ZM7.178,11.579a2.064,2.064,0,0,1-1.93-2.165,2.053,2.053,0,0,1,1.93-2.165,2.042,2.042,0,0,1,1.93,2.165A2.053,2.053,0,0,1,7.178,11.579Zm7.137,0a2.064,2.064,0,0,1-1.93-2.165,2.053,2.053,0,0,1,1.93-2.165,2.042,2.042,0,0,1,1.93,2.165A2.048,2.048,0,0,1,14.315,11.579Z" transform="translate(-0.102 -1.077)" fill="#fff"/></g></svg>