<svg xmlns="http://www.w3.org/2000/svg" width="18.985" height="15.419" viewBox="0 0 18.985 15.419"><path d="M17.033,7.223c.012.169.012.337.012.506A11,11,0,0,1,5.975,18.8,11,11,0,0,1,0,17.053a8.05,8.05,0,0,0,.94.048A7.792,7.792,0,0,0,5.77,15.439a3.9,3.9,0,0,1-3.638-2.7,4.907,4.907,0,0,0,.735.06,4.115,4.115,0,0,0,1.024-.132A3.891,3.891,0,0,1,.771,8.85V8.8A3.919,3.919,0,0,0,2.53,9.3a3.9,3.9,0,0,1-1.2-5.2A11.06,11.06,0,0,0,9.348,8.163a4.392,4.392,0,0,1-.1-.891,3.895,3.895,0,0,1,6.734-2.662,7.66,7.66,0,0,0,2.469-.94,3.88,3.88,0,0,1-1.711,2.144,7.8,7.8,0,0,0,2.241-.6,8.364,8.364,0,0,1-1.951,2.012Z" transform="translate(0 -3.381)" fill="#fff"/></svg>