<svg xmlns="http://www.w3.org/2000/svg" width="61.645" height="55.48" viewBox="0 0 61.645 55.48"><g transform="translate(6482 -1213)"><g transform="translate(162)"><path d="M24.668,51.68l.216-.339L37.891,30.993a.445.445,0,0,1,.781.056c2.173,4.87,4.048,10.927,3.17,14.7a22.971,22.971,0,0,1-2.558,5.594c-.149.283-.313.56-.488.827a.442.442,0,0,1-.37.2H25.048A.444.444,0,0,1,24.668,51.68Z" transform="translate(-6665 1193)" fill="#fff"/><path d="M82.644,55.461v3.221a.462.462,0,0,1-.277.421c-1.007.431-4.454,2.014-5.887,4.007-3.658,5.091-6.452,12.37-12.7,12.37H37.721A16.748,16.748,0,0,1,21,58.7v-.3a.447.447,0,0,1,.447-.447H35.974a.494.494,0,0,1,.473.55,4.959,4.959,0,0,0,.519,2.789,5.111,5.111,0,0,0,4.582,2.846H48.74V58.528H41.63a.458.458,0,0,1-.37-.719c.077-.118.164-.241.257-.38.673-.956,1.634-2.44,2.589-4.13A32.348,32.348,0,0,0,45.9,49.718c.1-.221.185-.447.267-.668.139-.39.283-.755.385-1.12.1-.308.185-.632.267-.935a14.47,14.47,0,0,0,.344-3.277c0-.447-.021-.914-.062-1.361-.021-.488-.082-.976-.144-1.464-.041-.431-.118-.858-.2-1.3-.1-.652-.247-1.3-.411-1.952l-.056-.246c-.123-.447-.226-.873-.37-1.32-.406-1.4-.873-2.769-1.367-4.048-.18-.509-.385-1-.591-1.485-.3-.735-.611-1.4-.894-2.034-.144-.288-.267-.55-.39-.817-.139-.3-.282-.606-.426-.894-.1-.221-.221-.426-.3-.632l-.878-1.623a.286.286,0,0,1,.324-.416l5.5,1.49h.015c.01,0,.015.005.021.005l.724.2.8.226.293.082V22.856A2.84,2.84,0,0,1,51.565,20a2.79,2.79,0,0,1,2,.837,2.872,2.872,0,0,1,.827,2.019v4.849l.586.164a.468.468,0,0,1,.134.067c.144.108.349.267.611.462.206.164.426.365.694.57.529.426,1.161.976,1.854,1.608.185.159.365.324.529.488.894.832,1.9,1.808,2.851,2.887.267.3.529.611.8.935s.55.652.8.976c.324.431.673.878.976,1.346.144.221.308.447.447.668.39.591.735,1.2,1.063,1.813.139.283.282.591.406.894a13.071,13.071,0,0,1,.837,2.481,3.1,3.1,0,0,1,.118.55v.041a4.7,4.7,0,0,1,.1.776A8.3,8.3,0,0,1,67.048,47a9.34,9.34,0,0,1-.3,1.074c-.123.349-.247.714-.406,1.058a14.348,14.348,0,0,1-1.1,2.1c-.139.247-.3.509-.467.755-.18.262-.365.508-.529.75-.226.308-.467.632-.714.919a9.757,9.757,0,0,1-.694.873c-.344.406-.673.791-1.017,1.161-.205.241-.426.488-.652.709-.221.246-.447.467-.652.673-.344.344-.632.611-.873.832l-.565.519a.461.461,0,0,1-.3.113H54.391v5.615H59.9A5.152,5.152,0,0,0,63.247,62.9a40.174,40.174,0,0,0,3.406-3.349.427.427,0,0,1,.211-.128l15.211-4.4A.449.449,0,0,1,82.644,55.461Z" transform="translate(-6665 1193)" fill="#fff"/></g></g></svg>