<svg xmlns="http://www.w3.org/2000/svg" width="16.237" height="16.234" viewBox="0 0 16.237 16.234"><path d="M8.115,6.192a4.162,4.162,0,1,0,4.162,4.162A4.155,4.155,0,0,0,8.115,6.192Zm0,6.868a2.706,2.706,0,1,1,2.706-2.706A2.711,2.711,0,0,1,8.115,13.06Zm5.3-7.038a.971.971,0,1,1-.971-.971A.969.969,0,0,1,13.418,6.022Zm2.757.985a4.8,4.8,0,0,0-1.311-3.4,4.836,4.836,0,0,0-3.4-1.311c-1.34-.076-5.357-.076-6.7,0A4.829,4.829,0,0,0,1.363,3.6,4.82,4.82,0,0,0,.052,7c-.076,1.34-.076,5.357,0,6.7a4.8,4.8,0,0,0,1.311,3.4,4.842,4.842,0,0,0,3.4,1.311c1.34.076,5.357.076,6.7,0a4.8,4.8,0,0,0,3.4-1.311,4.836,4.836,0,0,0,1.311-3.4c.076-1.34.076-5.354,0-6.694ZM14.443,15.14A2.74,2.74,0,0,1,12.9,16.683c-1.069.424-3.6.326-4.785.326s-3.72.094-4.785-.326A2.739,2.739,0,0,1,1.787,15.14c-.424-1.069-.326-3.6-.326-4.785s-.094-3.72.326-4.785A2.739,2.739,0,0,1,3.33,4.026C4.4,3.6,6.934,3.7,8.115,3.7s3.72-.094,4.785.326a2.739,2.739,0,0,1,1.543,1.543c.424,1.069.326,3.6.326,4.785S14.867,14.075,14.443,15.14Z" transform="translate(0.005 -2.238)" fill="#fff"/></svg>