<svg xmlns="http://www.w3.org/2000/svg" width="82" height="82" viewBox="0 0 82 82"><g transform="translate(-270 -3206)"><g transform="translate(270 3206)" fill="#030104" stroke="#765691" stroke-width="4"><circle cx="41" cy="41" r="41" stroke="none"/><circle cx="41" cy="41" r="39" fill="none"/></g><g transform="translate(8.901 32.901)"><rect width="64" height="64" transform="translate(270.099 3182.099)" fill="none"/><g transform="translate(279.395 3193.744)"><path d="M60.75,169.724l5.966,1.583v-2.07l.487-.487h3.409v4.139H66.959l-4.5-1.948Z" transform="translate(-47.724 -132.349)" fill="#cdbdb2" fill-rule="evenodd"/><path d="M0,3.165,5.844,1.583v2.07l.487.487H9.74V0H6.087l-4.5,1.948Z" transform="translate(32.505 40.541) rotate(180)" fill="#cdbdb2" fill-rule="evenodd"/><path d="M88.8,150.234l-.487,4.017.609-.487h6.331l.73.487-.487-4.017-.974-.609-4.87.122Z" transform="translate(-69.321 -117.363)" fill="#393939" fill-rule="evenodd"/><path d="M75.375,27,78.3,33.818l1.339,19.844h4.748l1.461-19.844L88.523,27Z" transform="translate(-59.183 -21.278)" fill="#f89c35" fill-rule="evenodd"/><path d="M3.972,82.965.563,92.826l8.522-.487h5.478V88.079l-.243-8.766-1.217.974Z" transform="translate(-0.563 -62.269)" fill="#f89d35" fill-rule="evenodd"/><path d="M46.125,101.25l9.983.243-1.1,5.113-4.748-1.217Z" transform="translate(-36.264 -79.458)" fill="#d87c30" fill-rule="evenodd"/><path d="M46.125,101.813l4.139,3.9v3.9Z" transform="translate(-36.264 -79.899)" fill="#ea8d3a" fill-rule="evenodd"/><path d="M65.25,120.375l4.87,1.217,1.583,5.235-1.1.609-5.357-3.165Z" transform="translate(-51.25 -94.444)" fill="#f89d35" fill-rule="evenodd"/><path d="M61.724,138.375l-.974,7.548,6.453-4.5Z" transform="translate(-47.724 -108.548)" fill="#eb8f35" fill-rule="evenodd"/><path d="M87.842,102.375l.609,10.348-1.826-5.3Z" transform="translate(-67.998 -80.339)" fill="#ea8e3a" fill-rule="evenodd"/><path d="M39.375,138.5l5.6-.122L44,145.923Z" transform="translate(-30.975 -108.548)" fill="#d87c30" fill-rule="evenodd"/><path d="M3.241,149.651l10.348-3.287-4.626-7.426-8.4.609Z" transform="translate(-0.563 -108.989)" fill="#eb8f35" fill-rule="evenodd"/><path d="M55.378,58.5l-5.235,4.383-4.018,4.87,9.983.365Z" transform="translate(-36.264 -45.96)" fill="#e8821e" fill-rule="evenodd"/><path d="M60.75,156.942l6.453-4.5-.487,3.9v2.191l-4.383-.852Z" transform="translate(-47.724 -119.567)" fill="#dfcec3" fill-rule="evenodd"/><path d="M0,1.583l6.331,4.5-.487-3.9V0L1.461.852Z" transform="translate(32.505 38.958) rotate(180)" fill="#dfcec3" fill-rule="evenodd"/><path d="M1.339,2.8,0,0,4.748,1.217Z" transform="translate(18.505 27.027) rotate(180)" fill="#393939" fill-rule="evenodd"/><path d="M12.375.563,28.932,13.1l-2.8-6.818Z" transform="translate(-9.818 -0.563)" fill="#e88f35" fill-rule="evenodd"/><path d="M4.441.563,2.25,7.258l1.217,7.3-.852.487,1.217,1.1L2.859,17,4.2,18.215l-.852.73,1.948,2.435,9.131-2.8Q21.12,13.224,21,13.1T4.441.563Z" transform="translate(-1.885 -0.562)" fill="#8e5a30" fill-rule="evenodd"/><g transform="translate(45.532 40.663) rotate(180)"><path d="M3.409,9.861,0,0,8.522.487H14V4.748l-.243,8.766L12.54,12.54Z" transform="translate(0 10.105)" fill="#f89d35" fill-rule="evenodd"/><path d="M0,5.357l9.983-.243L8.887,0,4.139,1.217Z" transform="translate(9.861 13.514)" fill="#d87c30" fill-rule="evenodd"/><path d="M0,7.792,4.139,3.9V0Z" transform="translate(9.861 10.957)" fill="#ea8d3a" fill-rule="evenodd"/><path d="M0,7.061,4.87,5.844,6.453.609,5.357,0,0,3.165Z" transform="translate(14 7.67)" fill="#f89d35" fill-rule="evenodd"/><path d="M.974,7.548,0,0,6.331,4.383Z" transform="translate(13.026 3.287)" fill="#eb8f35" fill-rule="evenodd"/><path d="M1.217,10.348,1.826,0,0,5.3Z" transform="translate(18.627 8.279)" fill="#ea8e3a" fill-rule="evenodd"/><path d="M0,7.426l5.6.122L4.626,0Z" transform="translate(8.4 3.287)" fill="#d87c30" fill-rule="evenodd"/><path d="M2.678,0,13.026,3.287,8.4,10.713,0,10.1Z" transform="translate(0)" fill="#eb8f35" fill-rule="evenodd"/><path d="M9.253,9.618,4.018,5.235,0,.365,9.983,0Z" transform="translate(9.861 18.505)" fill="#e8821e" fill-rule="evenodd"/><path d="M1.339,0,0,2.8,4.748,1.583Z" transform="translate(18.505 16.436) rotate(180)" fill="#393939" fill-rule="evenodd"/><path d="M0,12.54,16.557,0l-2.8,6.818Z" transform="translate(2.557 28.123)" fill="#e88f35" fill-rule="evenodd"/><path d="M2.191,20.818,0,14.122l1.217-7.3L.365,6.331l1.217-1.1L.609,4.383,1.948,3.165,1.1,2.435,3.044,0l9.131,2.8q6.7,5.357,6.574,5.478T2.191,20.818Z" transform="translate(0.365 19.844)" fill="#8e5a30" fill-rule="evenodd"/></g></g></g></g></svg>